<svg width="305" height="193" viewBox="0 0 305 193" fill="none" xmlns="http://www.w3.org/2000/svg">
<path d="M303.902 125.94C305.174 129.508 303.606 132.746 299.982 134.034C296.359 135.321 293.095 133.8 291.823 130.231L280.91 80.504L257.917 35.0669C256.645 31.4981 258.213 28.2604 261.837 26.9736C265.46 25.6867 268.724 27.2064 269.996 30.7752L280.91 80.504L303.902 125.94ZM186.923 26.7883L199.004 22.4966L215.956 70.0779L203.877 74.3697L186.923 26.7883ZM114.446 52.5388L126.527 48.2471L143.48 95.8301L131.401 100.122L114.446 52.5388ZM243.823 167.388C247.426 177.5 242.329 188.022 232.06 191.67C221.794 195.317 211.187 190.375 207.584 180.265C203.982 170.154 209.078 159.631 219.346 155.983C229.614 152.334 240.221 157.277 243.823 167.388Z" fill="#455A64"/>
<path d="M231.744 171.68C233.014 175.249 231.447 178.486 227.824 179.775C224.199 181.062 220.935 179.54 219.665 175.972C218.392 172.404 219.96 169.167 223.585 167.878C227.208 166.591 230.471 168.111 231.744 171.68Z" fill="#B0BEC5"/>
<path d="M214.738 57.1092L200.847 62.0451C200.243 62.2599 199.639 62.4747 199.035 62.6894C199.246 63.2828 200.062 63.6632 200.274 64.2582C203.845 72.3712 193.1 84.2301 176.402 90.8333C160.306 97.2217 144.899 95.9955 140.937 88.6923C89.9058 113.523 26.499 149.454 32.2216 165.513C40.9106 189.899 202.425 148.593 227.188 139.795L242.286 134.431C250.138 131.641 257.385 129.066 263.213 126.325L236.089 50.1929C229.838 51.7453 222.59 54.319 214.738 57.1092Z" fill="#008B8B"/>
<path d="M258.71 85.0399C260.406 89.7989 266.117 92.4595 270.95 90.7432L280.008 87.5251C284.841 85.8071 287.584 80.1416 285.89 75.3843C284.195 70.6254 278.483 67.9648 273.652 69.6811L264.592 72.8991C259.759 74.6171 257.016 80.2826 258.71 85.0399Z" fill="#607D8B"/>
<path d="M187.082 151.365L207.001 169.08C208.538 163.844 212.31 159.152 217.745 157.221L212.089 145.161C205.02 146.331 196.956 148.526 187.082 151.365Z" fill="#78909C"/>
<path d="M279.109 94.5448L268.512 64.8058C262.366 47.5568 251.008 46.2323 236.089 50.1929L263.213 126.325C277.285 119.985 285.253 111.794 279.109 94.5448ZM201.706 1.43286C150.368 19.6736 96.328 58.9764 96.328 58.9764C92.705 60.2649 91.1356 63.5009 92.4078 67.0697C93.4667 70.0435 96.7301 71.5647 99.3583 71.3008C99.9624 71.0861 99.9624 71.0861 100.567 70.8713L210.181 25.2244C215.014 23.508 217.759 17.8425 216.063 13.0835L213.944 7.13607C210.766 -1.78513 201.706 1.43286 201.706 1.43286ZM65.2705 130.318C56.4124 120.735 36.2486 100.425 24.7738 104.502C9.6744 109.868 0.0102539 113.3 0.0102539 113.3L32.2218 165.513C29.2554 157.187 43.8345 144.634 65.2705 130.318ZM199.035 62.6895C199.247 63.2829 200.062 63.6632 200.274 64.2583C203.845 72.3713 193.1 84.2302 176.402 90.8334C175.798 91.0481 174.59 91.476 173.986 91.6907C173.381 91.9055 172.777 92.1202 172.173 92.335C171.569 92.5498 170.361 92.9792 169.758 93.194C168.55 93.6218 167.946 93.8366 166.526 93.671C165.922 93.8858 164.714 94.3153 163.898 93.935C162.69 94.3645 161.874 93.9841 160.666 94.4136C160.063 94.6284 159.247 94.248 158.643 94.4628C157.223 94.2972 156.619 94.512 155.199 94.3464C154.595 94.5595 154.383 93.9661 153.779 94.1808C152.359 94.0153 151.543 93.635 150.123 93.4694C150.123 93.4694 149.519 93.6825 149.307 93.0891C147.887 92.9235 147.072 92.5432 146.256 92.1629C145.44 91.7825 144.412 90.8072 143.596 90.4268C142.176 90.2613 141.36 89.8809 140.937 88.6924C136.921 90.7891 133.509 92.671 129.281 94.1726C135.968 107.21 155.273 111.741 177.62 103.802C178.828 103.373 179.432 103.158 180.639 102.728C190.091 98.7005 198.907 92.8874 204.884 86.7432C212.64 77.9565 215.321 68.2943 211.537 59.5862C211.325 58.9911 211.325 58.9911 211.114 58.3977L200.243 62.26C200.243 62.26 199.639 62.4747 199.035 62.6895Z" fill="#0D545B"/>
</svg>
